<svg xmlns="http://www.w3.org/2000/svg" width="900" height="24" viewBox="0 0 900 24" role="presentation">
  <defs>
    <linearGradient id="sfade" x1="0" y1="0" x2="1" y2="0">
      <stop offset="0%" stop-color="#000"/><stop offset="8%" stop-color="#fff"/>
      <stop offset="92%" stop-color="#fff"/><stop offset="100%" stop-color="#000"/>
    </linearGradient>
    <mask id="smask"><rect width="900" height="24" fill="url(#sfade)"/></mask>
  </defs>
  <g mask="url(#smask)" fill="none" stroke-linecap="round" stroke-linejoin="round">
    <!-- ghost trace, always visible -->
    <path d="M0.0 12.00 L4.0 12.00 L8.0 12.00 L12.0 11.99 L16.0 11.99 L20.0 11.99 L24.0 11.99 L28.0 11.99 L32.0 11.99 L36.0 11.99 L40.0 12.00 L44.0 12.01 L48.0 12.01 L52.0 12.02 L56.0 12.03 L60.0 12.03 L64.0 12.04 L68.0 12.04 L72.0 12.03 L76.0 12.02 L80.0 12.01 L84.0 11.99 L88.0 11.97 L92.0 11.95 L96.0 11.92 L100.0 11.91 L104.0 11.90 L108.0 11.90 L112.0 11.91 L116.0 11.93 L120.0 11.97 L124.0 12.02 L128.0 12.07 L132.0 12.13 L136.0 12.18 L140.0 12.23 L144.0 12.25 L148.0 12.26 L152.0 12.23 L156.0 12.18 L160.0 12.09 L164.0 11.98 L168.0 11.86 L172.0 11.72 L176.0 11.60 L180.0 11.50 L184.0 11.44 L188.0 11.43 L192.0 11.48 L196.0 11.59 L200.0 11.76 L204.0 11.99 L208.0 12.25 L212.0 12.52 L216.0 12.77 L220.0 12.98 L224.0 13.11 L228.0 13.14 L232.0 13.06 L236.0 12.85 L240.0 12.53 L244.0 12.12 L248.0 11.64 L252.0 11.15 L256.0 10.68 L260.0 10.30 L264.0 10.05 L268.0 9.97 L272.0 10.10 L276.0 10.43 L280.0 10.95 L284.0 11.64 L288.0 12.42 L292.0 13.24 L296.0 14.01 L300.0 14.64 L304.0 15.06 L308.0 15.21 L312.0 15.05 L316.0 14.57 L320.0 13.79 L324.0 12.78 L328.0 11.62 L332.0 10.42 L336.0 9.29 L340.0 8.35 L344.0 7.72 L348.0 7.47 L352.0 7.66 L356.0 8.28 L360.0 9.30 L364.0 10.64 L368.0 12.17 L372.0 13.76 L376.0 15.25 L380.0 16.48 L384.0 17.33 L388.0 17.69 L392.0 17.51 L396.0 16.79 L400.0 15.59 L404.0 14.01 L408.0 12.19 L412.0 10.31 L416.0 8.56 L420.0 7.10 L424.0 6.08 L428.0 5.62 L432.0 5.76 L436.0 6.50 L440.0 7.77 L444.0 9.45 L448.0 11.38 L452.0 13.37 L456.0 15.22 L460.0 16.77 L464.0 17.85 L468.0 18.37 L472.0 18.29 L476.0 17.61 L480.0 16.41 L484.0 14.82 L488.0 12.99 L492.0 11.10 L496.0 9.35 L500.0 7.88 L504.0 6.85 L508.0 6.32 L512.0 6.35 L516.0 6.90 L520.0 7.91 L524.0 9.27 L528.0 10.82 L532.0 12.42 L536.0 13.91 L540.0 15.16 L544.0 16.04 L548.0 16.51 L552.0 16.53 L556.0 16.13 L560.0 15.36 L564.0 14.33 L568.0 13.15 L572.0 11.93 L576.0 10.80 L580.0 9.86 L584.0 9.18 L588.0 8.81 L592.0 8.77 L596.0 9.02 L600.0 9.54 L604.0 10.24 L608.0 11.05 L612.0 11.88 L616.0 12.65 L620.0 13.29 L624.0 13.75 L628.0 14.01 L632.0 14.06 L636.0 13.91 L640.0 13.60 L644.0 13.17 L648.0 12.68 L652.0 12.18 L656.0 11.71 L660.0 11.32 L664.0 11.03 L668.0 10.87 L672.0 10.83 L676.0 10.90 L680.0 11.07 L684.0 11.30 L688.0 11.57 L692.0 11.85 L696.0 12.10 L700.0 12.32 L704.0 12.47 L708.0 12.56 L712.0 12.59 L716.0 12.56 L720.0 12.48 L724.0 12.37 L728.0 12.23 L732.0 12.10 L736.0 11.97 L740.0 11.87 L744.0 11.79 L748.0 11.75 L752.0 11.73 L756.0 11.75 L760.0 11.78 L764.0 11.83 L768.0 11.89 L772.0 11.95 L776.0 12.00 L780.0 12.05 L784.0 12.08 L788.0 12.10 L792.0 12.11 L796.0 12.10 L800.0 12.09 L804.0 12.07 L808.0 12.05 L812.0 12.03 L816.0 12.00 L820.0 11.99 L824.0 11.97 L828.0 11.96 L832.0 11.96 L836.0 11.96 L840.0 11.97 L844.0 11.97 L848.0 11.98 L852.0 11.99 L856.0 12.00 L860.0 12.00 L864.0 12.01 L868.0 12.01 L872.0 12.01 L876.0 12.01 L880.0 12.01 L884.0 12.01 L888.0 12.01 L892.0 12.00 L896.0 12.00 L900.0 12.00 " stroke="#0EADCF" stroke-opacity="0.3" stroke-width="1.4"/>
    <!-- bright sweep redrawing the trace left to right -->
    <path d="M0.0 12.00 L4.0 12.00 L8.0 12.00 L12.0 11.99 L16.0 11.99 L20.0 11.99 L24.0 11.99 L28.0 11.99 L32.0 11.99 L36.0 11.99 L40.0 12.00 L44.0 12.01 L48.0 12.01 L52.0 12.02 L56.0 12.03 L60.0 12.03 L64.0 12.04 L68.0 12.04 L72.0 12.03 L76.0 12.02 L80.0 12.01 L84.0 11.99 L88.0 11.97 L92.0 11.95 L96.0 11.92 L100.0 11.91 L104.0 11.90 L108.0 11.90 L112.0 11.91 L116.0 11.93 L120.0 11.97 L124.0 12.02 L128.0 12.07 L132.0 12.13 L136.0 12.18 L140.0 12.23 L144.0 12.25 L148.0 12.26 L152.0 12.23 L156.0 12.18 L160.0 12.09 L164.0 11.98 L168.0 11.86 L172.0 11.72 L176.0 11.60 L180.0 11.50 L184.0 11.44 L188.0 11.43 L192.0 11.48 L196.0 11.59 L200.0 11.76 L204.0 11.99 L208.0 12.25 L212.0 12.52 L216.0 12.77 L220.0 12.98 L224.0 13.11 L228.0 13.14 L232.0 13.06 L236.0 12.85 L240.0 12.53 L244.0 12.12 L248.0 11.64 L252.0 11.15 L256.0 10.68 L260.0 10.30 L264.0 10.05 L268.0 9.97 L272.0 10.10 L276.0 10.43 L280.0 10.95 L284.0 11.64 L288.0 12.42 L292.0 13.24 L296.0 14.01 L300.0 14.64 L304.0 15.06 L308.0 15.21 L312.0 15.05 L316.0 14.57 L320.0 13.79 L324.0 12.78 L328.0 11.62 L332.0 10.42 L336.0 9.29 L340.0 8.35 L344.0 7.72 L348.0 7.47 L352.0 7.66 L356.0 8.28 L360.0 9.30 L364.0 10.64 L368.0 12.17 L372.0 13.76 L376.0 15.25 L380.0 16.48 L384.0 17.33 L388.0 17.69 L392.0 17.51 L396.0 16.79 L400.0 15.59 L404.0 14.01 L408.0 12.19 L412.0 10.31 L416.0 8.56 L420.0 7.10 L424.0 6.08 L428.0 5.62 L432.0 5.76 L436.0 6.50 L440.0 7.77 L444.0 9.45 L448.0 11.38 L452.0 13.37 L456.0 15.22 L460.0 16.77 L464.0 17.85 L468.0 18.37 L472.0 18.29 L476.0 17.61 L480.0 16.41 L484.0 14.82 L488.0 12.99 L492.0 11.10 L496.0 9.35 L500.0 7.88 L504.0 6.85 L508.0 6.32 L512.0 6.35 L516.0 6.90 L520.0 7.91 L524.0 9.27 L528.0 10.82 L532.0 12.42 L536.0 13.91 L540.0 15.16 L544.0 16.04 L548.0 16.51 L552.0 16.53 L556.0 16.13 L560.0 15.36 L564.0 14.33 L568.0 13.15 L572.0 11.93 L576.0 10.80 L580.0 9.86 L584.0 9.18 L588.0 8.81 L592.0 8.77 L596.0 9.02 L600.0 9.54 L604.0 10.24 L608.0 11.05 L612.0 11.88 L616.0 12.65 L620.0 13.29 L624.0 13.75 L628.0 14.01 L632.0 14.06 L636.0 13.91 L640.0 13.60 L644.0 13.17 L648.0 12.68 L652.0 12.18 L656.0 11.71 L660.0 11.32 L664.0 11.03 L668.0 10.87 L672.0 10.83 L676.0 10.90 L680.0 11.07 L684.0 11.30 L688.0 11.57 L692.0 11.85 L696.0 12.10 L700.0 12.32 L704.0 12.47 L708.0 12.56 L712.0 12.59 L716.0 12.56 L720.0 12.48 L724.0 12.37 L728.0 12.23 L732.0 12.10 L736.0 11.97 L740.0 11.87 L744.0 11.79 L748.0 11.75 L752.0 11.73 L756.0 11.75 L760.0 11.78 L764.0 11.83 L768.0 11.89 L772.0 11.95 L776.0 12.00 L780.0 12.05 L784.0 12.08 L788.0 12.10 L792.0 12.11 L796.0 12.10 L800.0 12.09 L804.0 12.07 L808.0 12.05 L812.0 12.03 L816.0 12.00 L820.0 11.99 L824.0 11.97 L828.0 11.96 L832.0 11.96 L836.0 11.96 L840.0 11.97 L844.0 11.97 L848.0 11.98 L852.0 11.99 L856.0 12.00 L860.0 12.00 L864.0 12.01 L868.0 12.01 L872.0 12.01 L876.0 12.01 L880.0 12.01 L884.0 12.01 L888.0 12.01 L892.0 12.00 L896.0 12.00 L900.0 12.00 " stroke="#55FFCC" stroke-width="1.6"
          stroke-dasharray="160 2400" stroke-dashoffset="200">
      <animate attributeName="stroke-dashoffset" from="200" to="-1700"
               dur="4.5s" repeatCount="indefinite"/>
    </path>
  </g>
</svg>
